<svg width="194" height="194" viewBox="0 0 194 194" fill="none" xmlns="http://www.w3.org/2000/svg">
<g clip-path="url(#clip0_16_2)">
<path d="M5.41497 67.5627L5.37705 67.5059L5.34722 67.4444C5.08762 66.909 4.91466 66.3145 4.96597 65.6786C5.01851 65.0275 5.29725 64.4418 5.75205 63.9199C6.60967 62.9356 8.18317 62.0797 10.494 61.1939C33.7431 52.282 61.691 50.6827 83.3227 54.2418C113.34 59.1807 137.462 73.2285 157.784 95.8265C162.033 100.547 166.35 106.028 170.576 111.395C171.864 113.031 173.144 114.657 174.411 116.247C174.464 113.708 174.416 111.475 174.36 109.262C174.355 109.071 174.35 108.88 174.345 108.689C174.274 105.929 174.203 103.156 174.318 99.8611C174.32 98.7371 174.571 97.6266 175.142 96.7626C175.74 95.8588 176.685 95.2479 177.907 95.2479C178.632 95.2479 179.237 95.5458 179.692 96.0465C180.115 96.5122 180.383 97.1235 180.568 97.7554C180.937 99.0153 181.08 100.729 181.167 102.604C181.266 104.744 181.357 106.559 181.437 108.173C181.705 113.54 181.861 116.675 181.861 122.052C181.861 123.157 181.873 124.187 181.884 125.129C181.9 126.523 181.914 127.726 181.884 128.7C181.858 129.525 181.801 130.26 181.67 130.865C181.544 131.449 181.318 132.07 180.832 132.501C180.384 132.898 179.83 133.07 179.325 133.136C178.816 133.203 178.279 133.173 177.775 133.099C176.771 132.95 175.749 132.601 175.044 132.268L175.025 132.259L175.006 132.249C173.528 131.472 172.046 130.694 170.563 129.915C163.688 126.304 156.766 122.669 149.929 118.98L149.92 118.976L149.912 118.971C149.275 118.612 147.98 117.825 146.974 116.925C146.481 116.484 145.977 115.945 145.689 115.351C145.382 114.717 145.268 113.864 145.886 113.121C146.218 112.72 146.691 112.636 146.956 112.614C147.259 112.588 147.59 112.62 147.912 112.673C148.565 112.78 149.39 113.014 150.316 113.324C152.181 113.949 154.618 114.942 157.239 116.076C160.599 117.53 164.324 119.245 167.593 120.749C168.575 121.201 169.516 121.634 170.393 122.035C145.766 84.9056 113.012 61.3038 67.1618 59.2061L67.1604 59.206C48.5759 58.3313 30.5014 60.6372 13.213 67.6502L13.2112 67.6509C13.0152 67.73 12.813 67.8135 12.6062 67.8988C11.5371 68.3403 10.3475 68.8316 9.26811 69.02C8.60096 69.1364 7.88663 69.1574 7.19847 68.9403C6.48617 68.7156 5.87991 68.2601 5.41497 67.5627Z" fill="#FFB8A8" stroke="#FFB8A8" stroke-width="2"/>
</g>
<defs>
<clipPath id="clip0_16_2">
<rect width="194" height="194" fill="white"/>
</clipPath>
</defs>
</svg>
