<svg width="207" height="207" viewBox="0 0 207 207" fill="none" xmlns="http://www.w3.org/2000/svg">
<g clip-path="url(#clip0_19_7)">
<path fill-rule="evenodd" clip-rule="evenodd" d="M28.0047 158.33C26.8769 156.373 25.7189 154.39 24.448 152.528C21.5788 148.327 18.0091 144.556 12.4378 142.62L12.3123 142.576L12.1821 142.55C10.739 142.254 9.6683 142.946 9.08294 143.565C8.54248 144.136 8.25584 144.783 8.1459 145.111C7.74699 146.301 8.13835 147.372 8.52334 148.029C8.91433 148.698 9.46085 149.24 9.96135 149.593C16.7869 154.466 20.6861 161.498 24.8357 168.981C25.4193 170.033 26.0079 171.095 26.6102 172.16L26.6232 172.183L26.6368 172.206C26.8335 172.534 26.9844 172.817 27.1575 173.143C27.2885 173.389 27.4323 173.66 27.6183 173.991C27.9857 174.645 28.4519 175.403 29.0831 176.077C30.0537 177.162 31.405 178.18 33.1225 178.058C34.8234 177.937 36.0809 176.751 36.9991 175.465L37.0063 175.455L37.0134 175.445C39.5187 171.842 42.0532 168.255 44.5927 164.66L44.5938 164.659C47.1316 161.067 49.6743 157.468 52.1892 153.851L52.2028 153.832L52.2159 153.812C52.5185 153.354 53.1418 152.397 53.4839 151.408C53.6508 150.926 53.8343 150.209 53.714 149.439C53.5706 148.521 53.0125 147.683 52.037 147.242L51.9822 147.217L51.9261 147.196C50.8412 146.781 49.7873 147.006 48.9808 147.359C48.1799 147.709 47.4197 148.268 46.7259 148.879C45.3331 150.105 43.832 151.879 42.34 153.784C41.2117 155.224 40.082 156.744 38.962 158.25C37.9834 159.565 37.0122 160.871 36.056 162.106C35.968 161.523 35.8804 160.947 35.7937 160.377C35.2436 156.759 34.7295 153.379 34.3697 149.956C32.5728 132.443 31.4711 115.145 35.7159 98.1731C37.1412 92.4742 39.0638 86.7925 42.0929 82.062L42.0968 82.0557L42.1008 82.0495C45.2409 77.0646 48.6844 74.8968 51.8251 74.7367C54.9534 74.5772 58.5458 76.3725 62.0788 81.0574L62.0853 81.066C66.2876 86.5759 69.8154 92.5102 73.4104 98.5576C75.2406 101.636 77.0883 104.744 79.0512 107.841C80.1623 109.597 81.2574 111.432 82.3689 113.293C84.9886 117.682 87.6994 122.222 90.9234 126.253L90.9316 126.264C93.9948 130.043 98.3117 133.513 102.901 135.413L102.914 135.418L102.928 135.423C107.64 137.296 112.189 137.086 115.591 134.74C118.997 132.39 120.791 128.218 120.66 123.144C120.542 117.82 119.637 112.376 118.765 107.127C118.39 104.87 118.021 102.65 117.724 100.49L117.722 100.48L117.721 100.47C117.46 98.7121 117.179 96.9888 116.9 95.2824C116.263 91.3794 115.64 87.5653 115.313 83.6244C115.008 79.8846 115.963 76.7936 118.951 75.0342C122.019 73.2817 125.203 74.2671 127.585 76.7335L127.594 76.7425L127.602 76.7513C131.72 80.9099 135.244 85.7771 138.833 90.7353C138.94 90.882 139.046 91.0287 139.152 91.1755C140.402 92.9391 141.494 94.8542 142.644 96.8812L142.708 96.9943C143.824 98.9615 144.998 101.032 146.367 102.991L146.373 103L146.38 103.01C148.362 105.776 150.865 108.251 153.435 110.36L153.445 110.369L153.456 110.378C157 113.206 161.98 114.177 165.887 111.091C167.262 110.01 168.474 108.463 169.349 106.841C170.219 105.229 170.857 103.357 170.888 101.581L170.888 101.552L170.888 101.523C170.823 96.0296 169.431 90.4458 168.172 85.3922L168.129 85.22C167.428 82.4199 166.564 79.6492 165.716 76.9311L165.7 76.8808C164.841 74.1281 164 71.4267 163.314 68.6934L163.311 68.6777L163.306 68.662C162.561 65.879 163.006 64.5001 163.555 63.905C164.1 63.315 165.443 62.742 168.365 63.2969L168.368 63.2975C178.822 65.2647 185.885 71.6104 190.578 81.2052L190.582 81.214C191.202 82.466 191.928 83.6902 192.597 84.8209C192.874 85.2878 193.387 86.1692 193.387 86.1692L193.45 86.2784C193.45 86.2784 193.026 85.7162 193.525 86.3789C194.025 87.0416 194.715 87.4903 195.515 87.637C196.278 87.7768 196.98 87.6145 197.524 87.3582C198.066 87.103 198.54 86.7153 198.892 86.253C199.231 85.8069 199.561 85.1462 199.548 84.3477C199.536 83.5589 199.328 82.6567 199.104 81.8843C198.869 81.0732 198.566 80.2398 198.271 79.5314L198.257 79.4979L198.242 79.4649C192.695 67.4036 183.53 58.9672 170.274 55.8239L170.268 55.8224C165.044 54.6015 160.474 55.2795 157.663 58.2944C154.862 61.2974 154.464 65.9171 155.943 71.0557C156.756 73.9156 157.702 76.7133 158.627 79.4466C158.69 79.632 158.753 79.8171 158.815 80.002C159.805 82.9307 160.76 85.7909 161.536 88.686C162.511 92.3248 163.313 96.0409 163.372 99.6209C163.375 100.437 163.159 101.58 162.765 102.586C162.571 103.083 162.359 103.483 162.158 103.763C161.978 104.014 161.872 104.083 161.872 104.083L161.864 104.087L161.844 104.097C161.48 104.272 160.53 104.4 159.332 104.212C158.781 104.126 158.277 103.987 157.878 103.82C157.454 103.644 157.277 103.49 157.242 103.45L157.233 103.44L157.224 103.43C154.308 100.239 151.866 96.6721 149.33 92.9676C148.396 91.6034 147.45 90.2205 146.462 88.8311C145.323 87.2073 144.189 85.4906 143.034 83.7435C140.524 79.9473 137.92 76.0079 134.978 72.5674L134.97 72.5579L134.962 72.5486C130.393 67.338 123.902 65.5371 117.121 67.8976L117.109 67.9015L117.098 67.9056C113.553 69.1876 111.148 71.4112 109.704 74.2178C108.288 76.9711 107.862 80.1527 107.985 83.3167L107.986 83.3267L107.986 83.3366C108.295 89.6219 109.267 95.8095 110.22 101.875L110.226 101.913C110.226 101.915 110.226 101.917 110.227 101.919C110.592 104.349 111.061 106.783 111.52 109.168C111.691 110.052 111.86 110.929 112.022 111.797C112.628 115.044 113.149 118.222 113.353 121.412C113.627 125.842 112.431 127.888 111.133 128.637C109.769 129.423 107.219 129.429 103.321 127.259L103.315 127.256C97.4309 124.004 94.0903 118.52 90.4187 112.492C90.262 112.235 90.1048 111.977 89.9467 111.718C86.9258 106.725 84.0093 101.678 81.0811 96.61L81.0762 96.6015C78.1523 91.5411 75.2166 86.4603 72.1723 81.4295C70.1482 78.0862 67.5024 75.0519 64.7045 72.4926L64.6971 72.4858L64.6897 72.4792C60.0876 68.3534 54.8554 66.5109 49.7679 67.1778C44.6844 67.8442 40.0913 70.9707 36.6703 76.0954C28.8514 87.8124 26.9551 101.094 25.9835 114.116L25.9829 114.124C24.9424 128.876 25.564 143.626 28.0047 158.33Z" fill="#FFB8A8"/>
</g>
<defs>
<clipPath id="clip0_19_7">
<rect width="207" height="207" fill="white" transform="matrix(4.37114e-08 -1 -1 -4.37114e-08 207 207)"/>
</clipPath>
</defs>
</svg>
