<svg width="344" height="445" viewBox="0 0 344 445" fill="none" xmlns="http://www.w3.org/2000/svg">
<g clip-path="url(#clip0_36_52)">
<rect x="116.5" y="44.5" width="180" height="261" rx="6.5" stroke="#FFB8A8" stroke-width="7"/>
<rect x="74.5" y="3.5" width="180" height="260" rx="6.5" stroke="#FFB8A8" stroke-width="7"/>
<rect x="158.5" y="86.5" width="182" height="261" rx="6.5" fill="#FFB8A8" stroke="#FFB8A8" stroke-width="7"/>
<path d="M186.595 275C186.199 275.132 185.649 275.22 185.253 275.22C183.603 275.22 183.207 274.208 183.559 272.118C183.581 271.942 183.625 271.766 183.647 271.568C182.965 271.458 182.921 270.314 183.207 269.17L183.361 268.62H184.417C185.693 264.726 187.871 261.602 190.115 259.578C190.577 259.468 191.083 259.38 191.633 259.38C194.053 259.38 194.735 260.282 195.109 262.218C195.527 264.594 195.483 267.784 194.713 272.008C194.537 272.976 194.471 273.988 194.625 275C194.163 275.132 193.789 275.22 193.151 275.22C191.457 275.22 190.621 274.45 191.215 271.59H187.057C186.771 272.866 186.617 274.01 186.595 275ZM189.609 268.62C190.555 268.62 191.193 268.972 191.523 269.5L191.611 269.478C192.029 266.728 191.897 265.012 191.523 262.592L191.391 262.57C189.829 264.638 188.751 266.706 188.003 268.62H189.609ZM198.879 263.274C199.715 263.032 200.727 262.9 201.673 262.9C203.631 262.9 204.401 264.858 204.093 266.046C203.587 268.026 202.729 269.236 202.289 271.084C202.179 271.568 202.157 271.942 202.223 272.338H202.355C204.093 271.898 205.523 270.336 206.007 268.378L206.073 268.114C206.557 266.2 206.425 264.352 206.007 263.252V263.12C206.557 262.944 207.085 262.878 207.525 262.878C208.097 262.878 208.581 263.076 208.933 263.428C209.703 264.198 209.945 265.826 209.483 268.004L209.417 268.312C208.515 272.47 205.633 275.22 202.113 275.22H202.003C200.221 275.22 198.769 273.218 198.989 271.568C199.275 269.434 200.331 267.806 200.881 265.87L200.749 265.782C200.199 266.442 199.495 266.86 198.813 266.86C198.263 266.86 197.977 266.222 198.351 264.638C198.461 264.22 198.593 263.846 198.879 263.274ZM216.471 262.856C217.835 262.856 218.627 263.824 219.111 264.836H219.221C219.353 264.242 219.441 263.582 219.441 263.12C219.837 262.988 220.189 262.944 220.651 262.944C222.147 262.944 222.961 263.868 222.213 266.882C221.729 268.752 220.959 270.402 220.497 271.832C220.651 271.92 220.805 271.942 221.003 271.942C221.377 271.942 221.751 271.832 222.191 271.458H222.323C222.279 271.656 222.213 271.898 222.147 272.162C221.927 273.086 221.597 273.922 221.201 274.362C220.673 274.934 220.189 275.22 219.353 275.22C217.769 275.22 216.955 273.746 217.263 271.964H217.131C216.009 273.768 214.469 275.264 213.215 275.264C210.993 275.264 210.069 272.228 210.619 270.006L210.773 269.39C211.873 264.968 213.897 262.856 216.471 262.856ZM213.699 271.788C213.831 271.81 213.963 271.832 214.095 271.832C215.371 271.832 216.625 271.084 217.923 269.412C218.231 268.444 218.561 267.476 218.847 266.42C218.407 266.09 217.769 265.914 217.065 265.914C215.569 265.914 214.777 267.256 214.183 269.39L214.073 269.786C213.853 270.556 213.743 271.238 213.699 271.788ZM228.078 258.412C228.716 258.324 229.486 258.28 230.058 258.28C231.774 258.28 232.478 259.05 232.126 260.502L231.84 261.646C231.202 261.734 230.454 261.778 229.882 261.778C227.99 261.778 227.33 261.096 227.77 259.512L228.078 258.412ZM225.416 263.12C226.142 262.988 227.044 262.9 227.792 262.9C228.936 262.9 229.926 264.066 229.684 265.386C229.31 267.52 228.496 268.818 227.99 270.864C227.902 271.216 227.836 271.502 227.858 271.788C228.012 271.876 228.232 271.92 228.43 271.92C228.848 271.92 229.178 271.832 229.53 271.524H229.662C229.75 272.03 229.728 272.668 229.574 273.394C229.464 273.944 229.244 274.362 228.914 274.692C228.562 275.044 227.968 275.22 227.154 275.22C225.878 275.22 224.448 274.186 224.734 271.898C224.976 269.83 225.988 268.18 226.428 266.398L226.318 266.332C226.076 266.552 225.768 266.618 225.394 266.618C224.888 266.618 224.536 265.98 224.91 264.396C225.02 263.978 225.152 263.604 225.416 263.12ZM233.371 258.5C234.163 258.368 234.977 258.258 235.769 258.258C237.441 258.258 238.783 259.688 238.519 261.206C237.859 264.902 235.901 267.344 235.043 270.996C234.955 271.37 234.889 271.722 234.867 272.052C235.065 272.118 235.263 272.14 235.461 272.14C236.187 272.14 236.781 271.854 237.463 271.216H237.595C237.639 271.678 237.639 272.404 237.441 273.262C237.287 273.878 237.067 274.23 236.715 274.582C236.319 274.978 235.615 275.22 234.669 275.22C232.711 275.22 231.347 273.306 231.721 271.018C232.249 267.322 234.141 264.638 234.977 261.69L234.867 261.624C234.559 261.866 234.097 261.998 233.679 261.998C232.799 261.998 232.469 261.404 232.865 259.776C232.975 259.358 233.107 258.984 233.371 258.5ZM245.045 262.856C246.409 262.856 247.201 263.824 247.685 264.836H247.795C247.927 264.242 248.015 263.582 248.015 263.12C248.411 262.988 248.763 262.944 249.225 262.944C250.721 262.944 251.535 263.868 250.787 266.882C250.303 268.752 249.533 270.402 249.071 271.832C249.225 271.92 249.379 271.942 249.577 271.942C249.951 271.942 250.325 271.832 250.765 271.458H250.897C250.853 271.656 250.787 271.898 250.721 272.162C250.501 273.086 250.171 273.922 249.775 274.362C249.247 274.934 248.763 275.22 247.927 275.22C246.343 275.22 245.529 273.746 245.837 271.964H245.705C244.583 273.768 243.043 275.264 241.789 275.264C239.567 275.264 238.643 272.228 239.193 270.006L239.347 269.39C240.447 264.968 242.471 262.856 245.045 262.856ZM242.273 271.788C242.405 271.81 242.537 271.832 242.669 271.832C243.945 271.832 245.199 271.084 246.497 269.412C246.805 268.444 247.135 267.476 247.421 266.42C246.981 266.09 246.343 265.914 245.639 265.914C244.143 265.914 243.351 267.256 242.757 269.39L242.647 269.786C242.427 270.556 242.317 271.238 242.273 271.788ZM255.2 275C255.024 275.044 254.804 275.066 254.606 275.066C252.78 275.066 251.834 273.394 252.252 271.59C253.264 267.256 254.628 264.77 255.464 260.678C255.618 259.974 255.684 259.094 255.42 258.5C255.816 258.368 256.212 258.324 256.674 258.324C258.192 258.324 259.336 259.248 258.588 262.262C258.28 263.428 257.928 264.528 257.554 265.584L257.664 265.628C258.896 264.088 260.59 262.856 261.976 262.856C263.692 262.856 264.836 265.452 264.176 267.982L264.022 268.576C262.812 273.24 260.788 275.264 258.236 275.264C256.938 275.264 255.97 274.164 255.464 273.35L255.332 273.372C255.266 273.9 255.222 274.45 255.2 275ZM260.612 266.288C259.16 266.288 257.708 267.19 256.256 269.28C256.014 270.028 255.816 270.798 255.64 271.59C256.036 271.986 256.608 272.206 257.4 272.206C259.028 272.206 259.908 270.886 260.524 268.774L260.612 268.444C260.876 267.586 261.008 266.926 260.986 266.332C260.876 266.31 260.744 266.288 260.612 266.288ZM267.446 258.5C268.238 258.368 269.052 258.258 269.844 258.258C271.516 258.258 272.858 259.688 272.594 261.206C271.934 264.902 269.976 267.344 269.118 270.996C269.03 271.37 268.964 271.722 268.942 272.052C269.14 272.118 269.338 272.14 269.536 272.14C270.262 272.14 270.856 271.854 271.538 271.216H271.67C271.714 271.678 271.714 272.404 271.516 273.262C271.362 273.878 271.142 274.23 270.79 274.582C270.394 274.978 269.69 275.22 268.744 275.22C266.786 275.22 265.422 273.306 265.796 271.018C266.324 267.322 268.216 264.638 269.052 261.69L268.942 261.624C268.634 261.866 268.172 261.998 267.754 261.998C266.874 261.998 266.544 261.404 266.94 259.776C267.05 259.358 267.182 258.984 267.446 258.5ZM280.615 262.856C283.783 262.856 285.433 265.43 284.971 267.322L284.927 267.498C284.355 269.742 281.979 270.622 279.097 270.622C278.041 270.622 277.249 270.424 276.875 270.094H276.765C276.677 270.798 276.721 271.48 276.985 272.074C277.623 272.316 278.261 272.382 278.965 272.382C281.605 272.382 283.189 271.7 284.927 270.534H285.059C285.037 271.062 284.971 271.524 284.883 271.876C284.575 273.064 284.135 273.636 283.541 274.098C282.485 274.912 281.187 275.264 278.811 275.264C274.873 275.264 272.871 271.942 273.883 268.246L273.949 268.004C274.851 264.682 277.447 262.856 280.615 262.856ZM280.901 265.76C279.449 265.76 277.865 266.508 277.095 268.774C277.249 268.796 277.403 268.796 277.535 268.796C280.417 268.796 281.451 268.026 281.737 266.926C281.847 266.442 281.891 266.134 281.891 265.87C281.649 265.804 281.385 265.76 280.901 265.76ZM300.864 275H293.362C292.372 275 292.02 274.23 292.284 273.174C292.416 272.646 292.614 272.162 292.812 271.81H296.508L296.574 271.7C295.958 271.304 295.65 270.512 295.87 269.456C296.354 267.058 297.542 265.276 297.85 262.79H297.696C295.606 262.79 295.078 261.8 295.408 260.568C295.518 260.128 295.65 259.864 295.826 259.6H303.328C304.318 259.6 304.67 260.37 304.406 261.426C304.274 261.954 304.076 262.438 303.878 262.79H300.006L299.94 262.9C300.578 263.296 300.864 264.11 300.644 265.144C300.16 267.564 298.972 269.126 298.642 271.81H299.016C301.106 271.81 301.612 272.8 301.282 274.032C301.172 274.472 301.04 274.736 300.864 275ZM305.99 263.12C306.254 263.032 306.562 262.988 306.914 262.988C309.004 262.988 309.642 264.154 309.114 266.486H309.246C310.214 264.616 312.062 262.922 313.778 262.922C315.472 262.922 316.396 265.342 315.978 266.882C315.516 268.532 314.724 269.852 314.262 271.48C314.218 271.612 314.174 271.766 314.152 271.92C314.262 271.942 314.372 271.964 314.482 271.964C314.79 271.964 315.208 271.876 315.626 271.458H315.758C315.736 271.722 315.692 271.964 315.582 272.382C315.34 273.306 315.098 273.9 314.856 274.274C314.438 274.934 313.888 275.22 312.788 275.22C311.49 275.22 310.214 273.328 310.544 271.81C310.874 270.38 311.732 268.532 312.92 266.816C312.7 266.596 312.37 266.486 311.974 266.486C310.896 266.486 309.334 267.872 307.948 270.314C307.42 271.964 307.024 273.416 307.156 275.066C307.024 275.11 306.892 275.132 306.716 275.132C304.296 275.132 303.834 273.086 303.988 272.052C304.318 269.72 305.44 267.542 305.902 265.298C306.056 264.572 306.1 263.736 305.99 263.12ZM175.617 300C175.221 300.132 174.759 300.176 174.319 300.176C172.515 300.176 171.965 299.01 172.207 297.47C172.735 294.082 174.429 291.64 175.067 287.702C174.759 287.746 174.539 287.79 174.407 287.79C173.725 287.79 173.593 287.152 173.923 285.854C174.055 285.348 174.187 284.974 174.363 284.6C176.321 284.292 177.817 284.16 179.797 284.16C183.625 284.16 185.319 286.734 184.659 289.44L184.593 289.704C183.361 294.742 180.963 296.414 178.411 296.414C177.597 296.414 176.893 295.908 176.431 295.292L176.299 295.336C176.035 296.172 175.793 297.03 175.639 297.888C175.529 298.57 175.507 299.318 175.617 300ZM177.949 289.594C177.795 290.848 177.421 292.08 176.981 293.334C177.245 293.378 177.509 293.4 177.927 293.4C179.313 293.4 180.413 292.476 181.227 289.44L181.315 289.11C181.425 288.67 181.491 288.01 181.447 287.68C180.985 287.438 180.391 287.35 179.313 287.35C178.653 287.35 178.037 287.372 177.509 287.416L177.443 287.526C177.883 287.988 178.059 288.714 177.949 289.594ZM188.5 300C188.324 300.066 187.95 300.132 187.598 300.132C185.2 300.132 185.09 298.086 185.244 297.052C185.574 294.72 186.696 292.542 187.158 290.298C187.312 289.572 187.356 288.736 187.246 288.12C187.51 288.032 187.818 287.988 188.17 287.988C190.15 287.988 190.832 289.044 190.436 291.134L190.568 291.178C191.69 288.626 192.702 287.68 193.67 287.68C194.044 287.68 194.286 287.768 194.506 287.988C194.924 288.406 195.078 289.374 194.77 290.606C194.594 291.31 194.352 291.838 194.132 292.212H194C193.582 291.926 193.186 291.86 192.57 291.86C191.602 291.86 190.766 292.388 189.468 294.522C188.83 296.48 188.302 298.108 188.5 300ZM199.482 283.412C200.12 283.324 200.89 283.28 201.462 283.28C203.178 283.28 203.882 284.05 203.53 285.502L203.244 286.646C202.606 286.734 201.858 286.778 201.286 286.778C199.394 286.778 198.734 286.096 199.174 284.512L199.482 283.412ZM196.82 288.12C197.546 287.988 198.448 287.9 199.196 287.9C200.34 287.9 201.33 289.066 201.088 290.386C200.714 292.52 199.9 293.818 199.394 295.864C199.306 296.216 199.24 296.502 199.262 296.788C199.416 296.876 199.636 296.92 199.834 296.92C200.252 296.92 200.582 296.832 200.934 296.524H201.066C201.154 297.03 201.132 297.668 200.978 298.394C200.868 298.944 200.648 299.362 200.318 299.692C199.966 300.044 199.372 300.22 198.558 300.22C197.282 300.22 195.852 299.186 196.138 296.898C196.38 294.83 197.392 293.18 197.832 291.398L197.722 291.332C197.48 291.552 197.172 291.618 196.798 291.618C196.292 291.618 195.94 290.98 196.314 289.396C196.424 288.978 196.556 288.604 196.82 288.12ZM204.842 288.12C205.106 288.032 205.414 287.988 205.766 287.988C207.856 287.988 208.494 289.154 207.966 291.486H208.098C209.066 289.616 210.914 287.922 212.63 287.922C214.324 287.922 215.248 290.342 214.83 291.882C214.368 293.532 213.576 294.852 213.114 296.48C213.07 296.612 213.026 296.766 213.004 296.92C213.114 296.942 213.224 296.964 213.334 296.964C213.642 296.964 214.06 296.876 214.478 296.458H214.61C214.588 296.722 214.544 296.964 214.434 297.382C214.192 298.306 213.95 298.9 213.708 299.274C213.29 299.934 212.74 300.22 211.64 300.22C210.342 300.22 209.066 298.328 209.396 296.81C209.726 295.38 210.584 293.532 211.772 291.816C211.552 291.596 211.222 291.486 210.826 291.486C209.748 291.486 208.186 292.872 206.8 295.314C206.272 296.964 205.876 298.416 206.008 300.066C205.876 300.11 205.744 300.132 205.568 300.132C203.148 300.132 202.686 298.086 202.84 297.052C203.17 294.72 204.292 292.542 204.754 290.298C204.908 289.572 204.952 288.736 204.842 288.12ZM224.655 296.216C224.721 296.634 224.699 297.118 224.523 297.712C224.347 298.372 224.083 298.812 223.621 299.274C222.983 299.912 222.169 300.22 220.959 300.22C218.209 300.22 217.197 298.856 217.527 295.974C217.725 294.258 218.297 292.696 218.869 291.156C217.703 290.738 217.263 289.858 217.571 288.538C217.615 288.362 217.659 288.252 217.725 288.12H219.903C220.057 287.614 220.167 287.108 220.255 286.58C220.365 285.92 220.387 285.238 220.277 284.6C220.849 284.424 221.333 284.38 221.839 284.38C223.093 284.38 223.731 285.106 223.533 286.646C223.467 287.152 223.379 287.636 223.247 288.12H224.963C226.195 288.12 226.613 288.956 226.327 290.034C226.195 290.54 226.041 290.98 225.799 291.42H222.191C221.619 292.916 221.069 294.368 220.849 295.732C220.761 296.26 220.739 296.656 220.761 296.964C221.047 297.074 221.377 297.14 221.883 297.14C222.543 297.14 223.357 296.942 224.523 296.216H224.655ZM235.849 300.198C233.649 300.198 232.417 298.658 232.747 296.458L232.791 296.172C233.165 294.258 234.485 292.938 236.509 292.652L236.641 292.454C236.311 291.068 236.355 289.594 236.531 288.582L236.553 288.45C236.883 286.448 239.171 284.38 242.515 284.38C243.659 284.38 244.539 284.622 245.199 285.194C245.705 285.634 245.837 286.228 245.639 287.02C245.507 287.57 245.221 287.988 244.891 288.318H244.759C243.967 287.878 242.779 287.68 241.459 287.68C240.755 287.68 240.359 287.746 239.919 287.834C239.809 288.098 239.699 288.494 239.611 288.956C239.457 289.792 239.457 290.892 239.655 292.014C239.853 293.048 240.161 293.972 240.799 294.874C241.745 293.774 242.207 292.806 242.405 291.684C242.471 291.332 242.515 291.024 242.537 290.738C242.779 290.672 243.065 290.628 243.571 290.628C245.067 290.628 245.771 291.354 245.551 292.366L245.507 292.564C245.199 293.95 243.879 295.204 241.723 295.776L241.701 295.908C242.339 296.48 243.021 296.7 243.659 296.7C244.121 296.7 244.319 296.634 244.561 296.502H244.693C244.759 296.92 244.737 297.47 244.649 298.108C244.539 298.856 244.253 299.472 243.791 299.868C243.505 300.11 243.153 300.22 242.691 300.22C241.855 300.22 240.975 299.868 239.413 298.02H239.237C238.489 299.516 237.323 300.198 235.849 300.198ZM236.003 295.512C235.629 296.612 236.025 297.294 237.015 297.294C237.499 297.294 237.983 297.118 238.489 296.788C237.939 295.93 237.499 294.918 237.147 294.016C236.619 294.324 236.223 294.83 236.025 295.446L236.003 295.512ZM266.416 292.08C265.03 297.646 261.224 300.22 257.176 300.22C255.856 300.22 254.756 299.846 254.008 299.098C253.48 298.57 253.348 297.976 253.436 297.25C253.832 293.972 255.702 291.024 256.274 287.746C256.076 287.768 255.9 287.79 255.812 287.79C255.13 287.79 254.998 287.152 255.328 285.854C255.46 285.348 255.636 284.974 255.834 284.6C257.638 284.314 259.134 284.16 261.246 284.16C265.272 284.16 267.736 286.756 266.57 291.464L266.416 292.08ZM256.758 297.074C257 297.118 257.352 297.14 257.748 297.14C260.19 297.14 262.104 295.6 263.138 291.486L263.204 291.222C263.622 289.55 263.644 289.11 263.534 288.12C262.94 287.592 261.818 287.35 260.718 287.35C259.882 287.35 259.134 287.394 258.496 287.46L258.43 287.57C259.046 287.878 259.178 288.604 259.002 289.704C258.584 292.168 257.044 294.61 256.758 297.074ZM272.056 283.412C272.694 283.324 273.464 283.28 274.036 283.28C275.752 283.28 276.456 284.05 276.104 285.502L275.818 286.646C275.18 286.734 274.432 286.778 273.86 286.778C271.968 286.778 271.308 286.096 271.748 284.512L272.056 283.412ZM269.394 288.12C270.12 287.988 271.022 287.9 271.77 287.9C272.914 287.9 273.904 289.066 273.662 290.386C273.288 292.52 272.474 293.818 271.968 295.864C271.88 296.216 271.814 296.502 271.836 296.788C271.99 296.876 272.21 296.92 272.408 296.92C272.826 296.92 273.156 296.832 273.508 296.524H273.64C273.728 297.03 273.706 297.668 273.552 298.394C273.442 298.944 273.222 299.362 272.892 299.692C272.54 300.044 271.946 300.22 271.132 300.22C269.856 300.22 268.426 299.186 268.712 296.898C268.954 294.83 269.966 293.18 270.406 291.398L270.296 291.332C270.054 291.552 269.746 291.618 269.372 291.618C268.866 291.618 268.514 290.98 268.888 289.396C268.998 288.978 269.13 288.604 269.394 288.12ZM281.332 287.856C282.784 287.856 283.73 288.824 284.236 289.836H284.39C284.588 289.264 284.808 288.648 285.094 287.988C285.27 287.944 285.512 287.9 285.798 287.9C287.228 287.9 288.13 289.154 287.558 290.672C286.106 294.5 286.084 297.118 285.05 299.978C284.06 302.728 281.046 304.62 277.68 304.62C275.942 304.62 275.348 304.18 275.018 303.718C274.666 303.234 274.644 302.486 274.864 301.628C274.952 301.32 275.04 301.056 275.172 300.792H275.304C276.052 301.166 277.086 301.43 278.736 301.43C279.374 301.43 280.056 301.342 280.716 301.166C281.42 300.264 281.882 299.384 282.234 298.284C282.432 297.646 282.586 297.052 282.718 296.48H282.586C281.376 298.196 279.484 299.384 278.186 299.384C275.964 299.384 275.04 296.568 275.59 294.346L275.744 293.73C276.734 289.726 278.802 287.856 281.332 287.856ZM278.692 295.82C278.824 295.842 278.934 295.842 279.066 295.842C280.342 295.842 281.838 295.49 283.202 294.06C283.378 293.246 283.576 292.366 283.884 291.376C283.378 291.068 282.652 290.914 281.926 290.914C280.496 290.914 279.638 291.97 279.154 293.73L279.044 294.126C278.868 294.764 278.758 295.336 278.692 295.82ZM292.939 283.412C293.577 283.324 294.347 283.28 294.919 283.28C296.635 283.28 297.339 284.05 296.987 285.502L296.701 286.646C296.063 286.734 295.315 286.778 294.743 286.778C292.851 286.778 292.191 286.096 292.631 284.512L292.939 283.412ZM290.277 288.12C291.003 287.988 291.905 287.9 292.653 287.9C293.797 287.9 294.787 289.066 294.545 290.386C294.171 292.52 293.357 293.818 292.851 295.864C292.763 296.216 292.697 296.502 292.719 296.788C292.873 296.876 293.093 296.92 293.291 296.92C293.709 296.92 294.039 296.832 294.391 296.524H294.523C294.611 297.03 294.589 297.668 294.435 298.394C294.325 298.944 294.105 299.362 293.775 299.692C293.423 300.044 292.829 300.22 292.015 300.22C290.739 300.22 289.309 299.186 289.595 296.898C289.837 294.83 290.849 293.18 291.289 291.398L291.179 291.332C290.937 291.552 290.629 291.618 290.255 291.618C289.749 291.618 289.397 290.98 289.771 289.396C289.881 288.978 290.013 288.604 290.277 288.12ZM304.921 296.216C304.987 296.634 304.965 297.118 304.789 297.712C304.613 298.372 304.349 298.812 303.887 299.274C303.249 299.912 302.435 300.22 301.225 300.22C298.475 300.22 297.463 298.856 297.793 295.974C297.991 294.258 298.563 292.696 299.135 291.156C297.969 290.738 297.529 289.858 297.837 288.538C297.881 288.362 297.925 288.252 297.991 288.12H300.169C300.323 287.614 300.433 287.108 300.521 286.58C300.631 285.92 300.653 285.238 300.543 284.6C301.115 284.424 301.599 284.38 302.105 284.38C303.359 284.38 303.997 285.106 303.799 286.646C303.733 287.152 303.645 287.636 303.513 288.12H305.229C306.461 288.12 306.879 288.956 306.593 290.034C306.461 290.54 306.307 290.98 306.065 291.42H302.457C301.885 292.916 301.335 294.368 301.115 295.732C301.027 296.26 301.005 296.656 301.027 296.964C301.313 297.074 301.643 297.14 302.149 297.14C302.809 297.14 303.623 296.942 304.789 296.216H304.921ZM313.215 287.856C314.579 287.856 315.371 288.824 315.855 289.836H315.965C316.097 289.242 316.185 288.582 316.185 288.12C316.581 287.988 316.933 287.944 317.395 287.944C318.891 287.944 319.705 288.868 318.957 291.882C318.473 293.752 317.703 295.402 317.241 296.832C317.395 296.92 317.549 296.942 317.747 296.942C318.121 296.942 318.495 296.832 318.935 296.458H319.067C319.023 296.656 318.957 296.898 318.891 297.162C318.671 298.086 318.341 298.922 317.945 299.362C317.417 299.934 316.933 300.22 316.097 300.22C314.513 300.22 313.699 298.746 314.007 296.964H313.875C312.753 298.768 311.213 300.264 309.959 300.264C307.737 300.264 306.813 297.228 307.363 295.006L307.517 294.39C308.617 289.968 310.641 287.856 313.215 287.856ZM310.443 296.788C310.575 296.81 310.707 296.832 310.839 296.832C312.115 296.832 313.369 296.084 314.667 294.412C314.975 293.444 315.305 292.476 315.591 291.42C315.151 291.09 314.513 290.914 313.809 290.914C312.313 290.914 311.521 292.256 310.927 294.39L310.817 294.786C310.597 295.556 310.487 296.238 310.443 296.788ZM322.424 283.5C323.216 283.368 324.03 283.258 324.822 283.258C326.494 283.258 327.836 284.688 327.572 286.206C326.912 289.902 324.954 292.344 324.096 295.996C324.008 296.37 323.942 296.722 323.92 297.052C324.118 297.118 324.316 297.14 324.514 297.14C325.24 297.14 325.834 296.854 326.516 296.216H326.648C326.692 296.678 326.692 297.404 326.494 298.262C326.34 298.878 326.12 299.23 325.768 299.582C325.372 299.978 324.668 300.22 323.722 300.22C321.764 300.22 320.4 298.306 320.774 296.018C321.302 292.322 323.194 289.638 324.03 286.69L323.92 286.624C323.612 286.866 323.15 286.998 322.732 286.998C321.852 286.998 321.522 286.404 321.918 284.776C322.028 284.358 322.16 283.984 322.424 283.5ZM209.035 325C208.639 325.132 208.177 325.176 207.737 325.176C205.933 325.176 205.383 324.01 205.625 322.47C206.153 319.104 207.825 316.684 208.485 312.79H208.309C207.231 312.79 206.769 311.866 207.099 310.656C207.231 310.172 207.385 309.886 207.583 309.6H216.537C217.615 309.6 218.033 310.48 217.747 311.602C217.637 312.064 217.439 312.482 217.263 312.79H210.905L210.839 312.9C211.279 313.362 211.433 314.11 211.323 314.99C211.235 315.76 211.037 316.53 210.795 317.3H213.127C214.579 317.3 214.865 318.268 214.601 319.39C214.513 319.786 214.337 320.27 214.205 320.49H209.695C209.431 321.282 209.189 322.074 209.057 322.888C208.947 323.57 208.925 324.318 209.035 325ZM224.475 312.856C227.313 312.856 229.315 315.672 228.479 319.544L228.413 319.852C227.643 323.46 225.597 325.264 221.989 325.264C218.513 325.264 216.665 322.602 217.589 319.17L217.677 318.84C218.645 315.188 221.109 312.856 224.475 312.856ZM224.453 315.958C222.957 315.958 221.769 317.058 220.999 319.742L220.955 319.896C220.669 320.93 220.559 321.722 220.669 322.316C220.977 322.448 221.307 322.492 221.703 322.492C223.639 322.492 224.981 321.524 225.465 319.588L225.509 319.412C225.839 318.048 225.949 316.97 225.817 316.134C225.465 316.002 225.069 315.958 224.453 315.958ZM233.574 325C233.398 325.066 233.024 325.132 232.672 325.132C230.274 325.132 230.164 323.086 230.318 322.052C230.648 319.72 231.77 317.542 232.232 315.298C232.386 314.572 232.43 313.736 232.32 313.12C232.584 313.032 232.892 312.988 233.244 312.988C235.224 312.988 235.906 314.044 235.51 316.134L235.642 316.178C236.764 313.626 237.776 312.68 238.744 312.68C239.118 312.68 239.36 312.768 239.58 312.988C239.998 313.406 240.152 314.374 239.844 315.606C239.668 316.31 239.426 316.838 239.206 317.212H239.074C238.656 316.926 238.26 316.86 237.644 316.86C236.676 316.86 235.84 317.388 234.542 319.522C233.904 321.48 233.376 323.108 233.574 325ZM244.05 325.066C243.852 325.11 242.994 325.132 242.818 325.132C240.728 325.132 240.31 323.086 240.464 322.052C240.794 319.72 241.828 317.542 242.29 315.298C242.444 314.572 242.554 313.736 242.444 313.12C242.818 313.032 243.28 312.988 243.962 312.988C245.48 312.988 246.162 313.934 245.92 315.76L246.096 315.804C247.02 314.264 248.538 312.9 250.034 312.9C251.024 312.9 251.86 314.11 251.794 315.76L252.036 315.804C252.96 314.264 254.544 312.856 256.194 312.856C257.822 312.856 258.35 315.43 258.02 316.64C257.514 318.51 256.766 320.05 256.326 321.7C255.952 323.108 255.952 323.988 256.106 325C255.864 325.132 255.226 325.198 254.654 325.198C252.916 325.198 252.388 323.746 252.828 321.81C253.136 320.424 253.884 318.686 254.852 316.728C254.676 316.508 254.412 316.42 254.016 316.42C253.224 316.42 252.322 317.08 251.134 319.06C250.452 321.722 249.77 323.438 250.034 325C249.616 325.066 249.088 325.11 248.45 325.11C246.602 325.11 246.162 324.318 246.514 322.646C246.844 321.062 247.658 319.06 248.692 316.574C248.472 316.464 248.252 316.42 247.988 316.42C247.174 316.42 246.184 317.212 244.864 319.698C244.292 321.612 243.852 323.24 244.05 325.066ZM264.832 312.856C266.196 312.856 266.988 313.824 267.472 314.836H267.582C267.714 314.242 267.802 313.582 267.802 313.12C268.198 312.988 268.55 312.944 269.012 312.944C270.508 312.944 271.322 313.868 270.574 316.882C270.09 318.752 269.32 320.402 268.858 321.832C269.012 321.92 269.166 321.942 269.364 321.942C269.738 321.942 270.112 321.832 270.552 321.458H270.684C270.64 321.656 270.574 321.898 270.508 322.162C270.288 323.086 269.958 323.922 269.562 324.362C269.034 324.934 268.55 325.22 267.714 325.22C266.13 325.22 265.316 323.746 265.624 321.964H265.492C264.37 323.768 262.83 325.264 261.576 325.264C259.354 325.264 258.43 322.228 258.98 320.006L259.134 319.39C260.234 314.968 262.258 312.856 264.832 312.856ZM262.06 321.788C262.192 321.81 262.324 321.832 262.456 321.832C263.732 321.832 264.986 321.084 266.284 319.412C266.592 318.444 266.922 317.476 267.208 316.42C266.768 316.09 266.13 315.914 265.426 315.914C263.93 315.914 263.138 317.256 262.544 319.39L262.434 319.786C262.214 320.556 262.104 321.238 262.06 321.788ZM280.729 321.216C280.795 321.634 280.773 322.118 280.597 322.712C280.421 323.372 280.157 323.812 279.695 324.274C279.057 324.912 278.243 325.22 277.033 325.22C274.283 325.22 273.271 323.856 273.601 320.974C273.799 319.258 274.371 317.696 274.943 316.156C273.777 315.738 273.337 314.858 273.645 313.538C273.689 313.362 273.733 313.252 273.799 313.12H275.977C276.131 312.614 276.241 312.108 276.329 311.58C276.439 310.92 276.461 310.238 276.351 309.6C276.923 309.424 277.407 309.38 277.913 309.38C279.167 309.38 279.805 310.106 279.607 311.646C279.541 312.152 279.453 312.636 279.321 313.12H281.037C282.269 313.12 282.687 313.956 282.401 315.034C282.269 315.54 282.115 315.98 281.873 316.42H278.265C277.693 317.916 277.143 319.368 276.923 320.732C276.835 321.26 276.813 321.656 276.835 321.964C277.121 322.074 277.451 322.14 277.957 322.14C278.617 322.14 279.431 321.942 280.597 321.216H280.729ZM288.165 322.074C288.891 322.074 289.617 321.986 290.123 321.81C290.409 321.106 290.233 320.666 288.957 320.358L287.373 319.984C285.525 319.544 284.821 317.938 285.217 316.398C285.811 314.11 288.209 312.856 291.069 312.856C292.807 312.856 293.599 313.032 294.061 313.494C294.501 313.934 294.545 314.638 294.369 315.43C294.237 316.024 294.061 316.42 293.885 316.706H293.753C292.851 316.2 291.861 316.046 290.651 316.046C289.265 316.046 288.473 316.398 288.363 316.86C288.253 317.322 288.627 317.476 289.881 317.784L290.783 318.004C293.115 318.576 293.643 320.05 293.247 321.678C292.631 324.054 291.069 325.264 287.549 325.264C285.239 325.264 283.985 324.846 283.435 324.318C283.061 323.944 282.885 323.24 283.017 322.228C283.083 321.678 283.347 321.194 283.589 320.864H283.721C284.821 321.722 286.075 322.074 288.165 322.074Z" fill="#013662"/>
<path d="M199.441 192C198.487 192.318 197.374 192.424 196.314 192.424C191.968 192.424 190.643 189.615 191.226 185.905C192.498 177.796 196.526 171.966 198.116 162.585H197.692C195.095 162.585 193.982 160.359 194.777 157.444C195.095 156.278 195.466 155.589 195.943 154.9H217.514C220.111 154.9 221.118 157.02 220.429 159.723C220.164 160.836 219.687 161.843 219.263 162.585H203.946L203.787 162.85C204.847 163.963 205.218 165.765 204.953 167.885C204.741 169.74 204.264 171.595 203.681 173.45H209.299C212.797 173.45 213.486 175.782 212.85 178.485C212.638 179.439 212.214 180.605 211.896 181.135H201.031C200.395 183.043 199.812 184.951 199.494 186.912C199.229 188.555 199.176 190.357 199.441 192ZM228.21 192C227.256 192.318 226.143 192.424 225.083 192.424C220.737 192.424 219.783 189.615 220.366 185.905C221.638 177.743 225.719 171.86 227.256 162.426C226.567 162.532 225.984 162.585 225.666 162.585C224.023 162.585 223.705 160.995 224.5 157.921C224.765 156.755 225.136 155.854 225.56 154.9C229.959 154.211 233.51 153.84 237.962 153.84C248.562 153.84 251.424 160.253 250.152 165.341L249.993 165.977C248.297 172.814 244.799 177.478 240.771 179.916C240.877 180.605 241.036 181.347 241.248 182.036C241.831 184.05 242.785 184.792 244.322 184.792C245.223 184.792 245.859 184.633 246.495 184.262H246.813C246.813 185.375 246.654 186.382 246.336 187.548C245.859 189.509 245.117 190.887 244.216 191.788C243.368 192.636 242.255 193.06 240.983 193.06C238.174 193.06 236.213 191.682 235.365 188.926C234.623 186.541 234.464 184.368 234.517 181.771C234.464 181.771 234.358 181.771 234.305 181.771C233.086 181.771 231.284 181.453 230.33 180.499L229.906 180.605C229.217 182.725 228.634 184.792 228.263 186.912C227.998 188.555 227.945 190.357 228.21 192ZM233.828 166.931C233.51 169.581 232.715 172.231 231.867 174.934C232.132 174.934 232.45 174.934 232.821 174.934C236.531 174.934 240.082 172.337 241.619 166.136L241.831 165.341C242.149 164.069 242.255 163.009 242.202 162.214C240.824 161.737 239.181 161.525 236.796 161.525C235.418 161.525 234.04 161.631 232.768 161.737L232.609 162.002C233.669 163.115 234.093 164.811 233.828 166.931ZM260.519 192C257.392 192 252.675 189.933 253.205 185.322C254.106 177.478 258.505 170.482 259.989 162.585H259.141C257.498 162.585 257.127 160.041 257.816 157.444C258.134 156.278 258.399 155.589 258.717 154.9H280.023C282.62 154.9 283.627 157.02 282.938 159.723C282.673 160.836 282.196 161.843 281.772 162.585H264.971L264.812 162.85C266.402 163.751 266.614 165.341 266.296 167.302C266.084 168.468 265.819 169.634 265.448 170.8H273.186C275.783 170.8 276.79 173.662 276.154 176.153C275.995 176.789 275.836 177.107 275.677 177.425H263.01C262.056 179.757 261.314 182.089 261.049 184.315H272.603C275.147 184.315 276.472 185.64 275.677 188.926C275.359 190.145 274.988 191.205 274.564 192H260.519ZM290.718 192C287.591 192 282.874 189.933 283.404 185.322C284.305 177.478 288.704 170.482 290.188 162.585H289.34C287.697 162.585 287.326 160.041 288.015 157.444C288.333 156.278 288.598 155.589 288.916 154.9H310.222C312.819 154.9 313.826 157.02 313.137 159.723C312.872 160.836 312.395 161.843 311.971 162.585H295.17L295.011 162.85C296.601 163.751 296.813 165.341 296.495 167.302C296.283 168.468 296.018 169.634 295.647 170.8H303.385C305.982 170.8 306.989 173.662 306.353 176.153C306.194 176.789 306.035 177.107 305.876 177.425H293.209C292.255 179.757 291.513 182.089 291.248 184.315H302.802C305.346 184.315 306.671 185.64 305.876 188.926C305.558 190.145 305.187 191.205 304.763 192H290.718Z" fill="#013662"/>
<path d="M328.5 172.5C328.5 188.021 320.105 202.419 305.847 213.092C291.587 223.765 271.68 230.5 249.5 230.5C227.32 230.5 207.413 223.765 193.153 213.092C178.895 202.419 170.5 188.021 170.5 172.5C170.5 156.979 178.895 142.581 193.153 131.908C207.413 121.235 227.32 114.5 249.5 114.5C271.68 114.5 291.587 121.235 305.847 131.908C320.105 142.581 328.5 156.979 328.5 172.5Z" stroke="#013662" stroke-width="9"/>
<g clip-path="url(#clip1_36_52)">
<path d="M7.90977 285.371L7.84406 285.352L7.77639 285.342C7.1875 285.258 6.56857 285.273 5.97832 285.515C5.3739 285.763 4.90059 286.207 4.54145 286.799C3.86422 287.915 3.52683 289.674 3.38488 292.145C1.95702 317.002 8.92368 344.115 18.8861 363.643C32.7106 390.742 53.4227 409.456 81.1262 421.952C86.9143 424.567 93.4481 427.014 99.8452 429.41C101.795 430.14 103.733 430.866 105.633 431.59C103.23 432.412 101.087 433.045 98.9623 433.663C98.779 433.717 98.5957 433.77 98.4124 433.823C95.7606 434.594 93.0976 435.368 89.993 436.479C88.9229 436.823 87.9409 437.399 87.2914 438.206C86.6119 439.05 86.3167 440.135 86.6882 441.3C86.9083 441.991 87.3762 442.477 87.9912 442.758C88.5634 443.02 89.2271 443.089 89.8855 443.073C91.198 443.043 92.8741 442.658 94.6871 442.171C96.7556 441.616 98.5131 441.151 100.075 440.737C105.269 439.361 108.304 438.558 113.427 436.924C114.479 436.589 115.464 436.287 116.365 436.011C117.698 435.603 118.848 435.251 119.767 434.927C120.546 434.652 121.228 434.373 121.765 434.065C122.283 433.767 122.806 433.363 123.069 432.77C123.312 432.222 123.307 431.642 123.217 431.141C123.126 430.635 122.934 430.133 122.71 429.676C122.263 428.764 121.621 427.896 121.089 427.326L121.074 427.31L121.059 427.295C119.87 426.123 118.678 424.948 117.485 423.771C111.957 418.319 106.391 412.828 100.799 407.434L100.793 407.428L100.786 407.421C100.25 406.923 99.107 405.928 97.9436 405.244C97.3733 404.908 96.7065 404.592 96.054 404.498C95.3563 404.398 94.5091 404.549 93.9886 405.362C93.7079 405.801 93.7718 406.277 93.8308 406.536C93.8983 406.833 94.0287 407.138 94.1772 407.429C94.478 408.019 94.9513 408.734 95.5285 409.522C96.6902 411.108 98.3767 413.129 100.253 415.281C102.659 418.04 105.424 421.069 107.851 423.727C108.58 424.525 109.278 425.289 109.926 426.003C67.0704 413.82 34.6339 389.785 18.7062 346.738L18.7057 346.737C12.2265 329.296 8.93259 311.376 10.362 292.774L10.3622 292.772C10.378 292.561 10.3961 292.343 10.4146 292.12C10.5105 290.967 10.6171 289.685 10.4687 288.599C10.3769 287.928 10.1799 287.241 9.76403 286.652C9.33356 286.041 8.71542 285.602 7.90977 285.371Z" fill="#FFB8A8" stroke="#FFB8A8" stroke-width="2"/>
</g>
</g>
<defs>
<clipPath id="clip0_36_52">
<rect width="344" height="445" fill="white"/>
</clipPath>
<clipPath id="clip1_36_52">
<rect width="194" height="194" fill="white" transform="matrix(-1 0 0 1 149 280)"/>
</clipPath>
</defs>
</svg>
