<svg width="148" height="31" viewBox="0 0 148 31" fill="none" xmlns="http://www.w3.org/2000/svg">
<path d="M4.32387 24.7696H11.0568L16.8013 2.90317C20.4457 2.90317 23.7813 2.71786 25.7579 0.308848L25.2638 0C24.5225 0.988314 22.5459 1.72955 21.6194 1.91486C19.6427 2.28548 16.1836 2.22371 12.9099 1.97663C10.1302 1.79132 7.96828 1.66778 6.42404 1.66778C3.70618 1.66778 1.4207 2.22371 0 4.32387L0.741235 4.63272C1.66778 2.65609 4.01503 2.22371 6.54758 2.22371C7.53589 2.22371 8.77129 2.28548 10.3155 2.40901L4.32387 24.7696ZM36.197 10.3155L30.6377 30.576H36.5676L37.9883 24.5225C38.6678 24.8932 40.2738 25.202 41.0768 25.202C45.0918 25.202 48.3038 21.99 49.8481 18.222C50.6511 16.2454 51.0217 14.3306 51.0217 12.5392C51.0217 9.45075 49.8481 7.22705 46.5125 7.22705C44.4124 7.22705 42.8681 8.83306 41.7563 10.9332C42.0651 9.1419 41.571 7.22705 38.5442 7.22705C36.3205 7.22705 34.591 8.46244 33.8498 10.5626L32.9232 13.1569H33.5409L34.2821 11.1803C34.8381 9.7596 35.394 9.08013 35.8881 9.08013C36.3823 9.08013 36.3205 9.88314 36.197 10.3155ZM129.284 11.798C129.84 9.08013 129.284 7.22705 126.257 7.22705C124.033 7.22705 122.304 8.46244 121.563 10.5626L120.636 13.1569H121.254L121.995 11.1803C122.551 9.7596 123.107 9.08013 123.725 9.08013C124.342 9.08013 124.28 9.82137 124.095 10.4391L120.08 24.7078H125.886L127.184 19.7663C128.048 16.4925 129.284 14.0217 130.21 12.2922C131.199 10.5008 132.063 9.57429 132.866 9.57429C133.422 9.57429 133.237 10.0067 132.928 10.995L128.975 24.7078H134.843L136.202 20.0751C137.314 16.3689 138.426 13.6511 139.476 12.0451C140.526 10.3773 141.391 9.57429 142.07 9.57429C142.379 9.57429 142.379 10.2538 142.07 10.995L139.229 19.5192C138.92 20.5075 138.735 21.3723 138.735 22.1135C138.735 23.9048 139.97 25.202 142.255 25.202C144.603 25.202 146.209 24.0284 146.95 21.8047L147.753 19.3957H147.135L146.456 21.2487C145.962 22.6077 145.344 23.2871 144.726 23.2871C144.109 23.2871 144.047 22.6694 144.294 21.9282L147.568 12.1686C147.876 11.2421 148 10.4391 148 9.82137C148 8.09182 147.012 7.22705 145.035 7.22705C143.676 7.22705 142.441 7.59766 141.329 8.40067C140.279 9.20367 139.29 10.6861 138.302 12.7863L138.487 12.1686C138.735 11.2421 138.858 10.5008 138.858 9.82137C138.858 8.09182 137.87 7.22705 135.955 7.22705C132.372 7.22705 130.581 9.57429 128.851 13.2805L129.284 11.798ZM120.018 6.54758C118.165 7.28881 115.88 8.15359 114.027 8.15359L113.718 9.26544C113.594 8.03005 112.606 7.22705 111.371 7.22705C107.85 7.22705 104.391 11.0568 102.476 14.7012C101.302 16.9249 100.87 19.025 100.87 21.0634C100.87 23.7813 102.229 25.202 104.885 25.202C107.417 25.202 109.023 23.9048 109.888 21.4341V22.0518C109.888 23.9666 110.938 25.202 113.285 25.202C115.633 25.202 117.239 24.0284 117.98 21.8047L118.783 19.3957H118.165L117.486 21.2487C116.992 22.6077 116.374 23.2871 115.756 23.2871C115.077 23.2871 115.139 22.7312 115.386 21.9282L120.018 6.54758ZM44.0417 17.5426C43.0534 20.5075 41.2003 24.0902 38.9766 24.0902C38.7295 24.0902 38.4207 24.0284 38.1119 23.9666L41.0768 13.4658C41.818 11.6745 42.9917 9.38898 44.1653 9.38898C44.8447 9.38898 44.9065 10.8097 44.9065 12.0451C44.9169 13.9122 44.6249 15.7688 44.0417 17.5426ZM62.8815 16.3072C62.0167 19.1486 59.7312 24.5225 58.187 24.5225C57.6311 24.5225 57.5075 23.9048 57.5075 22.6694C57.5075 20.7546 57.8781 18.6544 58.5576 16.3072C59.4224 13.2805 61.7696 7.84474 63.3756 7.84474C63.7462 7.84474 63.9316 8.77129 63.9316 9.7596C63.9316 11.798 63.5609 14.0217 62.8815 16.3072ZM69.3673 12.7863C69.3673 9.32721 67.4524 7.22705 63.4992 7.22705C56.828 7.22705 52.0718 12.9716 52.0718 19.581C52.0718 23.2871 54.172 25.202 57.9399 25.202C64.611 25.202 69.3673 19.3957 69.3673 12.7863ZM113.347 10.2538L111 18.0985C110.321 20.3222 109.27 22.9165 108.035 22.9165C107.294 22.9165 107.294 22.2371 107.294 21.187C107.294 19.3339 107.603 17.419 108.22 15.5042C109.085 12.9099 111.124 8.83306 112.73 8.83306C113.224 8.83306 113.409 9.51252 113.347 10.2538ZM95.4958 10.8715C96.6077 8.46244 98.2755 6.97997 100.19 6.97997C102.105 6.97997 103.464 8.3389 103.464 10.2538C103.464 12.5392 101.796 14.3306 99.6344 14.3306C97.9048 14.3306 97.2254 13.2805 97.2254 11.9215C97.2254 9.7596 99.1402 8.03005 100.932 7.90651C100.619 7.70358 100.254 7.59625 99.8815 7.59766C98.7696 7.59766 97.596 8.58598 96.8548 9.63606C95.7429 11.2421 94.8781 13.4658 94.1987 15.3806L91.7896 24.5843H85.9833L89.3189 12.8481C90.1219 9.94491 89.5659 7.90651 88.0217 7.90651C87.0334 7.90651 85.798 8.89482 84.6861 9.88314L84.3773 9.38898C85.9833 7.53589 89.3806 5.55927 91.7896 5.55927C94.2604 5.55927 96.1135 7.78297 95.4958 10.8715ZM79.2504 13.2805C79.499 12.1025 79.6232 10.9017 79.621 9.69783C79.621 8.40067 79.374 7.84474 78.8798 7.84474C77.8915 7.84474 77.0885 10.0067 76.8414 11.5509C76.6386 12.7344 76.5353 13.9328 76.5326 15.1336C76.5326 16.4307 76.6561 16.9866 77.1503 16.9866C78.3856 16.9866 79.0033 14.5159 79.2504 13.2805ZM85.1185 10.995C85.1185 14.207 82.0301 16.3689 78.571 17.419C76.9649 17.9132 75.5442 18.6544 75.5442 19.2721C75.5442 19.8898 76.1619 20.1369 79.6828 21.2487C81.783 21.9282 83.389 23.2254 83.389 25.2638C83.389 28.9699 77.9533 30.8848 73.1352 30.8848C70.4174 30.8848 66.6494 30.1436 66.6494 28.3523C66.6494 26.6227 70.4174 26.005 72.1469 25.8197C73.1352 25.6962 75.1736 25.3873 76.1002 25.0167L76.4708 25.5109C73.3823 25.8815 71.3439 27.7963 71.3439 28.8464C71.3439 29.7112 72.5793 30.3907 73.6912 30.3907C76.1002 30.3907 79.0033 28.9082 79.0033 27.2404C79.0033 26.4374 77.3973 25.9432 75.2972 25.2638C73.197 24.5843 70.4174 23.7195 70.4174 22.1753C70.4174 20.1369 73.5058 18.9015 76.8414 17.6043H76.4708C73.4441 17.6043 71.0351 16.5543 71.0351 13.8364C71.0351 10.0067 75.2972 7.22705 79.7446 7.22705C83.0184 7.22705 85.1185 8.40067 85.1185 10.995ZM31.7496 10.3773C31.7496 8.27713 30.8848 7.22705 29.217 7.22705C27.7346 7.22705 26.6845 7.96828 26.6845 9.88314C26.6845 11.9215 28.1052 13.7129 30.0818 14.8865C29.217 17.2955 28.1052 19.5192 26.6227 21.6194L25.202 11.1185C24.8314 8.52421 23.8431 7.22705 21.3105 7.22705C19.0868 7.22705 17.8514 8.3389 17.1102 10.5626L16.3072 12.9716H16.9249L17.5426 11.1803C17.9132 10.0684 18.4691 9.08013 18.9015 9.08013C19.2721 9.08013 19.3957 9.51252 19.581 10.5008L22.2371 26.7462C21.1252 27.7346 19.8898 28.5993 18.4691 29.217C17.3573 27.3022 15.9983 26.3139 14.3923 26.3139C13.6511 26.3139 12.9716 26.5609 12.4775 26.9933C12.0451 27.4875 11.798 28.0434 11.798 28.7229C11.798 29.4023 12.0451 29.8965 12.4775 30.3289C12.9716 30.6995 13.6511 30.8848 14.5159 30.8848C15.162 30.8827 15.8052 30.7997 16.4307 30.6377C17.9132 30.2671 19.3957 29.5876 20.9399 28.5376C22.4224 27.5492 23.8431 26.2521 25.2638 24.5843C27.0551 22.4224 28.5376 20.0134 29.8347 17.2955C31.0701 14.6394 31.7496 12.2922 31.7496 10.3773Z" fill="#FFB8A8"/>
</svg>
